<svg width="48" height="48" viewBox="0 0 48 48" fill="none" xmlns="http://www.w3.org/2000/svg">
<path d="M16.6406 9.18748C15.8156 8.83123 14.8594 8.99998 14.2031 9.61873L0.703125 22.3687C0.253124 22.7906 0 23.3812 0 24C0 24.6187 0.253124 25.2094 0.703125 25.6312L14.2031 38.3812C14.8594 39 15.8156 39.1687 16.6406 38.8125C17.4656 38.4562 18 37.6406 18 36.75V30L45 30C46.6594 30 48 28.6594 48 27V21C48 19.3406 46.6594 18 45 18L18 18V11.25C18 10.35 17.4656 9.54373 16.6406 9.18748Z" fill="black"/>
</svg>
